<svg xmlns="http://www.w3.org/2000/svg" width="32" height="40" viewBox="0 0 32 40">
  <!-- Pin shadow -->
  <ellipse cx="16" cy="38" rx="8" ry="2.5" fill="rgba(0,0,0,0.18)"/>
  <!-- Pin body -->
  <path d="M16 2C9.4 2 4 7.4 4 14C4 22.5 16 38 16 38C16 38 28 22.5 28 14C28 7.4 22.6 2 16 2Z" fill="#00704A"/>
  <!-- Circle background -->
  <circle cx="16" cy="14" r="9" fill="#00704A"/>
  <!-- White siren circle ring -->
  <circle cx="16" cy="14" r="7.5" fill="none" stroke="white" stroke-width="1.2" opacity="0.6"/>
  <!-- Simplified siren crown/tiara -->
  <path d="M12.5 11.5C12 10.5 12 10 13 10C13.5 10.5 13.5 11.5 13 12" stroke="white" stroke-width="1" fill="none" stroke-linecap="round"/>
  <path d="M19.5 11.5C20 10.5 20 10 19 10C18.5 10.5 18.5 11.5 19 12" stroke="white" stroke-width="1" fill="none" stroke-linecap="round"/>
  <!-- Star in center -->
  <polygon points="16,9 17.2,12.2 20.5,12.5 18.3,14.8 19.1,18.1 16,16.2 12.9,18.1 13.7,14.8 11.5,12.5 14.8,12.2" fill="white" opacity="0.9"/>
</svg>
